:SAMPLES-PER-SECOND 30
:FULLY-SPECIFIED
:DEGREES
273
root  45.7303 38.6248 8.53821 176.069 -26.3078 179.312
RightUpLeg  -8.5446 -16.1791 -1.25705
RightLeg  19.4942 -6.50978 -0.995202
RightFoot  -12.2515 -0.0725296 1.25324
RightToes  5.82063e-011 0 -3.6325e-017
Spine  13.0488 -1.30193 3.50249
Spine1  7.92845 -1.09551 1.37954
HEad  -21.7879 -2.77328 -0.646738
LeftShoulder1  0.904633 0.39454 -22.7661
LeftArm  -9.79737 -29.7403 -43.577
LeftForeArm  -0.432912 -59.0632 -19.2362
LeftHand  0.0282715 3.61579 -3.32618
RightShoulder  0.224624 -2.56343 17.8548
RightArm  -7.89181 35.7895 25.5603
RightForeArm  -27.6468 54.9193 18.1346
RightHand  -0.162978 7.23461 -1.85392
LeftUpLeg  -12.2877 17.3917 6.30238
LeftLeg  36.7556 4.74199 4.14944
LeftFoot  -10.052 0.0919067 -2.78783
LeftToes  1.68253e-010 -3.2327e-011 -2.69673e-012
274
root  46.7883 38.6523 8.49425 176.376 -33.037 179.257
RightUpLeg  -8.01651 -17.4958 -1.03861
RightLeg  18.3487 -11.9715 -0.955236
RightFoot  -12.9033 -0.0677872 1.45983
RightToes  5.82063e-011 0 -3.6325e-017
Spine  12.6997 -1.34991 2.99077
Spine1  8.08512 -1.27217 1.76594
HEad  -21.7867 0.333693 -2.27937
LeftShoulder1  0.926168 0.331986 -22.8836
LeftArm  -8.80588 -29.9958 -44.0973
LeftForeArm  -0.480889 -59.1432 -19.3077
LeftHand  0.0386736 3.07719 -2.87984
RightShoulder  0.138467 -2.92308 18.3183
RightArm  -8.41042 34.5237 24.8996
RightForeArm  -27.3512 55.7691 18.7203
RightHand  -0.196366 7.38006 -2.14462
LeftUpLeg  -10.8839 20.9185 5.80596
LeftLeg  38.7516 5.03732 4.6851
LeftFoot  -10.3533 0.0824609 -2.50627
LeftToes  1.68253e-010 -3.2327e-011 -2.69673e-012
275
root  47.7983 38.6629 8.38399 176.492 -39.8333 179.084
RightUpLeg  -7.41631 -17.7983 -1.0792
RightLeg  17.5512 -18.3 -0.944425
RightFoot  -13.4678 -0.0712179 1.07087
RightToes  5.82063e-011 0 -3.6325e-017
Spine  12.8533 -1.40156 2.41219
Spine1  8.01639 -1.40957 2.02983
HEad  -22.261 2.83772 -2.96001
LeftShoulder1  0.896228 0.412311 -22.6644
LeftArm  -7.74636 -30.3751 -45.0309
LeftForeArm  -0.0654764 -59.2647 -19.3709
LeftHand  0.0279831 3.087 -2.36714
RightShoulder  0.0723843 -3.19789 19.0629
RightArm  -8.96167 33.0818 23.9067
RightForeArm  -26.83 57.0718 19.6601
RightHand  -0.243646 7.34527 -2.57861
LeftUpLeg  -8.63742 23.9628 5.92205
LeftLeg  40.1706 4.7005 4.61993
LeftFoot  -11.0298 0.0760593 -3.45387
LeftToes  1.68253e-010 -3.2327e-011 -2.69673e-012
276
root  48.7939 38.665 8.22334 177.063 -46.6592 178.819
RightUpLeg  -7.51742 -17.1554 -0.930803
RightLeg  16.9541 -25.6155 -1.22136
RightFoot  -13.5912 -0.0855816 0.331805
RightToes  5.82063e-011 0 -3.6325e-017
Spine  12.6037 -1.3149 1.47818
Spine1  7.88397 -1.60062 2.77387
HEad  -23.5374 3.74432 -3.03727
LeftShoulder1  0.937627 0.271871 -22.6848
LeftArm  -6.62118 -30.5465 -45.4999
LeftForeArm  -0.69303 -59.3012 -19.461
LeftHand  0.017425 3.06031 -1.76156
RightShoulder  0.109074 -3.05539 19.1807
RightArm  -9.8463 31.2108 23.2958
RightForeArm  -25.6014 57.9675 20.3049
RightHand  -0.228105 7.12239 -2.48195
LeftUpLeg  -6.94525 26.6291 6.15385
LeftLeg  41.571 5.36395 5.46176
LeftFoot  -10.9557 0.0770359 -3.36104
LeftToes  1.68253e-010 -3.2327e-011 -2.69673e-012
277
root  49.701 38.6611 8.03411 177.727 -53.3039 178.183
RightUpLeg  -7.84471 -17.1414 -1.08854
RightLeg  17.2046 -32.2307 -1.83133
RightFoot  -13.6129 -0.110103 -0.915261
RightToes  5.82063e-011 0 -3.6325e-017
Spine  12.4661 -1.2695 0.780996
Spine1  7.80481 -1.73079 3.25146
HEad  -24.6835 4.55874 -3.79198
LeftShoulder1  0.963954 0.234585 -23.188
LeftArm  -5.79211 -30.8054 -45.7923
LeftForeArm  -0.336202 -59.2009 -19.343
LeftHand  0.0100711 3.52331 -1.91643
RightShoulder  0.128594 -2.97793 19.0748
RightArm  -10.4233 29.626 23.1054
RightForeArm  -25.2332 58.8083 20.9974
RightHand  -0.318534 7.02803 -3.19797
LeftUpLeg  -4.58875 29.8641 6.93246
LeftLeg  42.3227 6.52149 6.70621
LeftFoot  -10.647 0.0829996 -3.1976
LeftToes  1.68253e-010 -3.2327e-011 -2.69673e-012
278
root  50.5845 38.6589 7.81961 178.783 -59.4994 177.176
RightUpLeg  -8.28133 -17.7375 -1.23726
RightLeg  17.1968 -37.4559 -2.36182
RightFoot  -13.3817 -0.128203 -2.13811
RightToes  5.82063e-011 0 -3.6325e-017
Spine  12.0821 -1.05738 0.148094
Spine1  8.10353 -1.5968 3.17275
HEad  -25.4172 7.92912 -5.38242
LeftShoulder1  0.970311 0.219102 -23.2445
LeftArm  -4.99604 -31.1991 -46.2473
LeftForeArm  -0.581533 -58.991 -19.1899
LeftHand  0.0185415 3.1358 -1.91974
RightShoulder  0.148688 -2.90244 19.221
RightArm  -10.639 28.4097 22.7975
RightForeArm  -27.3915 59.7323 21.9524
RightHand  -0.617907 8.50802 -5.44202
LeftUpLeg  -1.78742 33.6453 8.50184
LeftLeg  42.4866 7.28299 7.4762
LeftFoot  -10.301 0.0874082 -2.79717
LeftToes  1.68253e-010 -3.2327e-011 -2.69673e-012
279
root  51.4254 38.6362 7.63603 -179.775 -65.8403 175.474
RightUpLeg  -8.55882 -19.4672 -1.89962
RightLeg  17.6482 -41.6313 -2.73538
RightFoot  -13.1003 -0.146495 -3.75786
RightToes  5.82063e-011 0 -3.6325e-017
Spine  12.2764 -1.05613 -0.35468
Spine1  7.98762 -1.68642 3.271
HEad  -26.6601 9.40555 -5.11243
LeftShoulder1  0.988907 0.152035 -23.2123
LeftArm  -4.5957 -30.9985 -46.7149
LeftForeArm  -0.436253 -59.0831 -19.2532
LeftHand  0.0146423 3.37504 -2.03186
RightShoulder  0.171615 -2.81364 19.2223
RightArm  -11.5016 27.4374 22.2732
RightForeArm  -23.1373 60.0061 21.949
RightHand  -0.174881 6.79571 -2.05609
LeftUpLeg  1.37894 36.7238 10.3223
LeftLeg  42.0431 8.93308 8.90946
LeftFoot  -10.0487 0.0903289 -2.6928
LeftToes  1.68253e-010 -3.2327e-011 -2.69673e-012
280
root  52.2289 38.6224 7.4665 -176.7 -72.1502 171.968
RightUpLeg  -8.60578 -21.9503 -3.09221
RightLeg  17.9056 -44.8699 -2.84113
RightFoot  -12.9175 -0.156298 -5.03096
RightToes  5.82063e-011 0 -3.6325e-017
Spine  12.5888 -1.19695 -1.01903
Spine1  7.68178 -1.89317 3.13066
HEad  -25.4515 11.1156 -5.16339
LeftShoulder1  1.01344 0.0353506 -22.9076
LeftArm  -4.33478 -30.5273 -47.089
LeftForeArm  -0.33013 -59.1833 -19.3275
LeftHand  0.00426748 3.28937 -1.33828
RightShoulder  0.187645 -2.75079 19.2313
RightArm  -11.308 26.7965 22.1432
RightForeArm  -24 60.1743 22.1645
RightHand  -0.29696 7.8255 -2.97923
LeftUpLeg  4.63027 38.8202 11.8029
LeftLeg  40.7308 10.8678 10.2342
LeftFoot  -9.548 0.0883252 -1.97833
LeftToes  1.68253e-010 -3.2327e-011 -2.69673e-012
